{"title":"Deadpool 2016 720p HDRip KORSUB x264 AAC2 0-SS NEW!","uid":14006693,"size":3787888743,"categoryP":"video","categoryS":"hd___movies","magnet":"?xt=urn:btih:5ed4677124515ff734252f6b22577886ec69b6ed&amp;dn=Deadpool+2016+720p+HDRip+KORSUB+x264+AAC2+0-SS+NEW%21&amp;tr=udp%3A%2F%2Ftracker.leechers-paradise.org%3A6969&amp;tr=udp%3A%2F%2Fzer0day.ch%3A1337&amp;tr=udp%3A%2F%2Fopen.demonii.com%3A1337&amp;tr=udp%3A%2F%2Ftracker.coppersurfer.tk%3A6969&amp;tr=udp%3A%2F%2Fexodus.desync.com%3A6969","seeders":1,"leechers":3,"uploader":"makintos13","files":1,"time":1458794447,"description":"screens:\r\n \nhttp://imgmak.com/KFL\r\n \nhttp://imgmak.com/KFX\r\n \nhttp://imgmak.com/KiC\r\n \nhttp://imgmak.com/KiK\r\n\r\n:::::::::::\r\n\r\nVideo\r\nID                                       : 0\r\nFormat                                   : MPEG-4 Visual\r\nFormat profile                           :   \r\nFormat settings, BVOP                    : No\r\nFormat settings, QPel                    : No\r\nFormat settings, GMC                     : No warppoints\r\nFormat settings, Matrix                  : Default (H.263)\r\nCodec ID                                 : XVID\r\nCodec ID/Hint                            : XviD\r\nDuration                                 : 1h 47mn\r\nBit rate                                 : 3 784 Kbps\r\nWidth                                    : 1 280 pixels\r\nHeight                                   : 720 pixels\r\nDisplay aspect ratio                     : 16:9\r\nFrame rate                               : 29.970 fps\r\nColor space                              : YUV\r\nChroma subsampling                       : 4:2:0\r\nBit depth                                : 8 bits\r\nScan type                                : Progressive\r\nCompression mode                         : Lossy\r\nBits/(Pixel*Frame)                       : 0.137\r\nStream size                              : 2.85 GiB (95%)\r\nWriting library                          : Lavc56.13.100\r\n\r\nAudio\r\nID                                       : 1\r\nFormat                                   : MPEG Audio\r\nFormat version                           : Version 1\r\nFormat profile                           : Layer 3\r\nMode                                     : Joint stereo\r\nMode extension                           : MS Stereo\r\nCodec ID                                 : 55\r\nCodec ID/Hint                            : MP3\r\nDuration                                 : 1h 47mn\r\nBit rate mode                            : Constant\r\nBit rate                                 : 192 Kbps\r\nChannel(s)                               : 2 channels\r\nSampling rate                            : 48.0 KHz\r\nCompression mode                         : Lossy\r\nStream size                              : 148 MiB (5%)\r\nAlignment                                : Aligned on interleaves\r\nInterleave, duration                     : 24 ms (0.72 video frame)\r\nInterleave, preload duration             : 504 ms","torrent":{"xt":"urn:btih:5ed4677124515ff734252f6b22577886ec69b6ed","amp;dn":"Deadpool+2016+720p+HDRip+KORSUB+x264+AAC2+0-SS+NEW%21","amp;tr":["udp%3A%2F%2Ftracker.leechers-paradise.org%3A6969","udp%3A%2F%2Fzer0day.ch%3A1337","udp%3A%2F%2Fopen.demonii.com%3A1337","udp%3A%2F%2Ftracker.coppersurfer.tk%3A6969","udp%3A%2F%2Fexodus.desync.com%3A6969"],"infoHash":"5ed4677124515ff734252f6b22577886ec69b6ed","infoHashBuffer":{"type":"Buffer","data":[94,212,103,113,36,81,95,247,52,37,47,107,34,87,120,134,236,105,182,237]},"announce":[],"urlList":[]}}